<svg width="560" height="500" xmlns="http://www.w3.org/2000/svg" preserveAspectRatio="xMidYMid meet" version="1.0">

 <g>
  <title>Layer 1</title>
  <path stroke="#000" id="svg_7" d="m436.5,457.51875l-1.99999,-53.00938l-312,-4.00937l0.48954,56.5l-73.25523,0.75l-0.12762,-159.125l461.44665,-0.0625l1.72333,158.47812l-76.27668,0.47813z" opacity="undefined" fill="#FFFA8D"/>
  <rect id="svg_6" height="182" width="364" y="44.5" x="93.5" stroke="#000" fill="#FFAC8D"/>
  <g id="svg_1" fill="#000000" transform="translate(0 500) scale(0.1 -0.1)">
   <path id="svg_2" d="m999,4800c-124,-21 -218,-108 -266,-246c-16,-44 -18,-125 -20,-873c-3,-744 -2,-829 13,-875c34,-107 98,-178 206,-233c51,-26 60,-27 215,-28l163,0l0,-27c0,-28 1,-28 68,-30c37,0 73,-1 80,-1c16,1 16,3 -21,-102l-32,-90l-130,-6c-71,-4 -338,-7 -592,-8l-463,-1l-1,-282c-1,-156 -1,-499 0,-763c0,-264 1,-607 1,-762l0,-281l538,-1c574,-1 603,1 664,49c51,40 57,68 59,303l1,217l132,-2l131,-2l-110,-6c-60,-3 441,-5 1115,-4c674,1 1249,4 1278,6l52,5l0,-199c0,-216 5,-241 56,-292c16,-16 49,-38 74,-50c43,-20 62,-21 520,-24c261,-2 512,-1 558,3l82,7l0,1039l0,1039l-617,1c-340,1 -625,1 -633,0c-11,-1 -30,35 -65,125c-28,70 -52,132 -54,137c-2,7 71,8 212,4c121,-3 241,-2 273,3c128,21 253,116 293,225c21,56 21,63 19,913l-3,857l-29,63c-34,74 -95,132 -176,171l-55,26l-1745,1c-960,1 -1766,-2 -1791,-6zm3371,-300c69,-12 99,-33 130,-96l25,-49l0,-712l0,-711l-31,-39c-64,-80 101,-73 -1743,-73l-1644,0l-33,25c-18,14 -44,48 -58,77l-25,53l-2,685l-2,686l27,51c29,58 76,99 121,106c60,9 3181,5 3235,-3zm-634,-2065c6,-22 19,-64 27,-92l16,-53l-1055,0c-787,0 -1054,3 -1054,11c0,7 14,50 32,96l31,83l996,-2l995,-3l12,-40zm346,-921c2,-262 1,-478 -1,-480c-3,-3 -572,-4 -1265,-4c-694,0 -1339,1 -1433,0l-173,0l0,-275l0,-275l-355,0l-355,0l0,749c0,590 3,750 13,754c6,3 812,6 1789,6l1778,0l2,-475zm984,470l22,-6l-1,-749l-2,-749l-296,0c-163,0 -324,-3 -358,-6l-61,-7l0,762l0,761l338,0c185,0 347,-3 358,-6zm-3269,-1230c-3,-3 -12,-4 -19,-1c-8,3 -5,6 6,6c11,1 17,-2 13,-5z"/>
   <path id="svg_3" d="m2654,4250c-27,-10 -37,-43 -59,-180c-9,-57 -25,-131 -35,-165c-40,-130 -70,-254 -70,-284c0,-17 -4,-31 -10,-31c-5,0 -10,10 -10,23c0,12 -9,54 -20,92c-11,39 -36,144 -55,235c-47,222 -60,265 -92,289c-49,39 -119,21 -141,-36c-6,-15 -25,-95 -41,-178c-17,-82 -46,-199 -66,-260c-19,-60 -35,-119 -35,-130c0,-11 -4,-26 -9,-34c-6,-9 -10,-5 -13,15c-3,16 -37,155 -77,309c-79,312 -82,318 -166,330c-56,9 -89,1 -115,-27c-41,-44 -29,-113 85,-513c19,-66 53,-187 75,-270c56,-208 69,-244 90,-255c23,-12 180,-13 212,-1c28,11 32,23 88,250c39,163 50,195 50,152c0,-12 27,-83 60,-158c33,-74 63,-146 66,-158c3,-12 18,-38 34,-56l28,-34l95,0c52,0 98,2 101,5c8,8 71,254 101,393c33,156 103,436 114,454c6,12 -5,99 -24,180c-10,43 -102,67 -161,43z"/>
   <path id="svg_4" d="m2927,4215c-24,-24 -29,-151 -25,-591c3,-312 7,-415 17,-433c13,-23 13,-23 164,-18c177,5 268,25 392,86c193,96 275,237 262,451c-14,240 -167,417 -412,480c-159,41 -370,54 -398,25zm349,-254c144,-42 204,-118 204,-258c0,-135 -76,-235 -212,-278c-43,-14 -83,-25 -89,-25c-5,0 -9,116 -9,296c0,276 1,295 18,291c9,-3 49,-14 88,-26z"/>
   <path id="svg_5" d="m2142,1420l3,-135l591,-3l592,-2l7,124c4,68 5,130 3,137c-3,10 -126,13 -601,13l-598,1l3,-135z"/>
  </g>
 </g>
</svg>