<?xml version="1.0" encoding="UTF-8"?>
<!DOCTYPE svg PUBLIC "-//W3C//DTD SVG 1.1//EN" "http://www.w3.org/Graphics/SVG/1.1/DTD/svg11.dtd">
<svg xmlns="http://www.w3.org/2000/svg" version="1.1" width="336px" height="295px" style="shape-rendering:geometricPrecision; text-rendering:geometricPrecision; image-rendering:optimizeQuality; fill-rule:evenodd; clip-rule:evenodd" xmlns:xlink="http://www.w3.org/1999/xlink">
<g><path style="opacity:0.991" fill="#800000" d="M 153.5,-0.5 C 163.5,-0.5 173.5,-0.5 183.5,-0.5C 241.467,7.97109 282.3,38.9711 306,92.5C 308.017,97.7127 309.517,103.046 310.5,108.5C 307.433,111.882 304.099,115.048 300.5,118C 272.403,140.766 243.737,162.766 214.5,184C 203.653,190.339 192.153,195.172 180,198.5C 179.228,198.355 178.561,198.022 178,197.5C 178.178,192.075 176.845,187.075 174,182.5C 171.263,181.39 168.429,181.223 165.5,182C 155.426,188.399 145.092,194.399 134.5,200C 127.239,203.565 119.573,205.065 111.5,204.5C 111.572,197.21 113.072,190.21 116,183.5C 117.458,181.04 119.291,178.873 121.5,177C 167.786,141.716 213.786,106.049 259.5,70C 265.5,63.3333 271.5,56.6667 277.5,50C 276.833,49.3333 276.167,49.3333 275.5,50C 228.161,87.7498 179.661,123.917 130,158.5C 142.256,132.574 159.089,109.74 180.5,90C 165.546,100.921 151.046,112.755 137,125.5C 150.105,109.039 164.105,93.0387 179,77.5C 180.458,75.04 182.291,72.8734 184.5,71C 158.743,88.3857 134.909,108.552 113,131.5C 95.9475,150.592 81.6141,171.592 70,194.5C 68.6912,196.976 66.8579,198.976 64.5,200.5C 63.914,200.291 63.414,199.957 63,199.5C 62.2762,193.682 62.9429,188.015 65,182.5C 79.5237,150.44 96.857,120.106 117,91.5C 134.454,69.0442 152.287,46.8776 170.5,25C 147.433,38.4674 124.6,52.634 102,67.5C 87.5796,88.6748 72.913,109.675 58,130.5C 47.3923,148.729 36.559,166.729 25.5,184.5C 12.3048,125.255 27.9714,75.0888 72.5,34C 96.24,14.7954 123.24,3.29537 153.5,-0.5 Z"/></g>
<g><path style="opacity:0.993" fill="#fd0000" d="M 310.5,108.5 C 318.833,101.833 327.167,95.1667 335.5,88.5C 335.5,89.1667 335.5,89.8333 335.5,90.5C 327.862,99.1412 320.195,107.808 312.5,116.5C 303.672,125.495 295.005,134.662 286.5,144C 254.878,168.62 223.545,193.62 192.5,219C 182.181,226.827 171.514,234.161 160.5,241C 149.701,246.985 138.201,250.818 126,252.5C 118.315,251.984 113.481,247.984 111.5,240.5C 99.3337,248.751 86.3337,255.084 72.5,259.5C 63.6778,261.336 55.8445,259.336 49,253.5C 48.0153,251.634 47.5153,249.634 47.5,247.5C 48.0606,243.137 48.7273,238.804 49.5,234.5C 50.7027,233.057 51.2027,231.391 51,229.5C 49.955,230.373 49.1217,231.373 48.5,232.5C 38.6579,240.422 27.6579,246.256 15.5,250C 8.89594,251.411 3.56261,249.578 -0.5,244.5C -0.5,242.5 -0.5,240.5 -0.5,238.5C 6.52995,219.772 15.1966,201.772 25.5,184.5C 36.559,166.729 47.3923,148.729 58,130.5C 72.913,109.675 87.5796,88.6748 102,67.5C 124.6,52.634 147.433,38.4674 170.5,25C 152.287,46.8776 134.454,69.0442 117,91.5C 96.857,120.106 79.5237,150.44 65,182.5C 62.9429,188.015 62.2762,193.682 63,199.5C 63.414,199.957 63.914,200.291 64.5,200.5C 66.8579,198.976 68.6912,196.976 70,194.5C 81.6141,171.592 95.9475,150.592 113,131.5C 134.909,108.552 158.743,88.3857 184.5,71C 182.291,72.8734 180.458,75.04 179,77.5C 164.105,93.0387 150.105,109.039 137,125.5C 151.046,112.755 165.546,100.921 180.5,90C 159.089,109.74 142.256,132.574 130,158.5C 179.661,123.917 228.161,87.7498 275.5,50C 276.167,49.3333 276.833,49.3333 277.5,50C 271.5,56.6667 265.5,63.3333 259.5,70C 213.786,106.049 167.786,141.716 121.5,177C 119.291,178.873 117.458,181.04 116,183.5C 113.072,190.21 111.572,197.21 111.5,204.5C 119.573,205.065 127.239,203.565 134.5,200C 145.092,194.399 155.426,188.399 165.5,182C 168.429,181.223 171.263,181.39 174,182.5C 176.845,187.075 178.178,192.075 178,197.5C 178.561,198.022 179.228,198.355 180,198.5C 192.153,195.172 203.653,190.339 214.5,184C 243.737,162.766 272.403,140.766 300.5,118C 304.099,115.048 307.433,111.882 310.5,108.5 Z"/></g>
<g><path style="opacity:0.99" fill="#800000" d="M 312.5,116.5 C 323.85,186.297 299.516,239.797 239.5,277C 221.773,286.258 203.106,292.091 183.5,294.5C 173.167,294.5 162.833,294.5 152.5,294.5C 122.426,290.459 95.7591,278.793 72.5,259.5C 86.3337,255.084 99.3337,248.751 111.5,240.5C 113.481,247.984 118.315,251.984 126,252.5C 138.201,250.818 149.701,246.985 160.5,241C 171.514,234.161 182.181,226.827 192.5,219C 223.545,193.62 254.878,168.62 286.5,144C 295.005,134.662 303.672,125.495 312.5,116.5 Z"/></g>
<g><path style="opacity:0.744" fill="#840000" d="M 49.5,234.5 C 48.6618,234.158 48.3284,233.492 48.5,232.5C 49.1217,231.373 49.955,230.373 51,229.5C 51.2027,231.391 50.7027,233.057 49.5,234.5 Z"/></g>
</svg>
