<?xml version="1.0" encoding="UTF-8" standalone="no"?>
<svg
   xmlns:dc="http://purl.org/dc/elements/1.1/"
   xmlns:cc="http://creativecommons.org/ns#"
   xmlns:rdf="http://www.w3.org/1999/02/22-rdf-syntax-ns#"
   xmlns:svg="http://www.w3.org/2000/svg"
   xmlns="http://www.w3.org/2000/svg"
   xmlns:sodipodi="http://sodipodi.sourceforge.net/DTD/sodipodi-0.dtd"
   xmlns:inkscape="http://www.inkscape.org/namespaces/inkscape"
   width="210mm"
   height="297mm"
   viewBox="0 0 210 297"
   version="1.1"
   id="svg8"
   inkscape:version="1.0.2-2 (e86c870879, 2021-01-15)"
   sodipodi:docname="vwlogo1.svg">
  <defs
     id="defs2" />
  <sodipodi:namedview
     id="base"
     pagecolor="#ffffff"
     bordercolor="#666666"
     borderopacity="1.0"
     inkscape:pageopacity="0.0"
     inkscape:pageshadow="2"
     inkscape:zoom="0.35"
     inkscape:cx="400"
     inkscape:cy="560"
     inkscape:document-units="mm"
     inkscape:current-layer="layer1"
     inkscape:document-rotation="0"
     showgrid="false"
     inkscape:window-width="1267"
     inkscape:window-height="1041"
     inkscape:window-x="130"
     inkscape:window-y="0"
     inkscape:window-maximized="0" />
  <metadata
     id="metadata5">
    <rdf:RDF>
      <cc:Work
         rdf:about="">
        <dc:format>image/svg+xml</dc:format>
        <dc:type
           rdf:resource="http://purl.org/dc/dcmitype/StillImage" />
        <dc:title></dc:title>
      </cc:Work>
    </rdf:RDF>
  </metadata>
  <g
     inkscape:label="Layer 1"
     inkscape:groupmode="layer"
     id="layer1">
    <circle
       style="fill:#800000;stroke-width:0.264583"
       id="path28"
       cx="54.42857"
       cy="104.32143"
       r="41.577381" />
    <path
       style="fill:#ff0000;stroke-width:0.264583"
       id="path84"
       d="m 35.885408,81.688452 c -0.319688,0.544708 -0.60878,1.10857 -0.95907,1.634125 -2.672254,4.009284 -5.75809,7.734863 -8.479932,11.711204 -4.314465,6.302999 -4.639737,7.136499 -8.677034,13.986589 -2.489434,4.30563 -5.708582,9.67863 -7.9166124,14.20411 -0.8507452,1.74365 -1.7568182,3.48414 -2.2998699,5.34671 -0.3369408,1.15565 -1.1218267,2.71107 -0.3080891,3.59813 3.9068324,4.25887 13.6900644,-4.35702 14.2884284,-4.70432 20.049198,-14.46038 39.347617,-29.928332 58.831825,-45.131727 0,0 5.198988,-5.931672 5.198988,-5.931672 v 0 c -17.00204,12.970602 -33.830868,26.274019 -51.955969,37.677919 -2.249874,1.22114 -4.556128,2.34368 -6.749619,3.66341 -0.729667,0.43901 -1.165309,1.79386 -1.993834,1.59716 -0.709847,-0.16853 -0.487473,-1.43811 -0.36723,-2.15771 0.263204,-1.57516 0.872441,-3.08053 1.488706,-4.55383 2.003291,-4.78926 4.597054,-9.01216 7.15317,-13.528165 1.665435,-2.598767 3.254843,-5.247857 4.996307,-7.796303 5.228352,-7.651122 11.325412,-14.652691 17.120108,-21.867166 0,0 -19.370273,12.251536 -19.370273,12.251536 z" />
    <path
       style="fill:#ff0000;stroke-width:0.264583"
       id="path136"
       d="M 59.841224,81.856518 C 47.855298,91.174712 38.623213,98.21801 30.849067,110.48082 c -1.002287,1.58099 -1.898505,3.22678 -2.847755,4.84017 -2.182822,3.98878 -2.91771,5.23387 -4.891704,9.20005 -1.395545,2.80395 -2.114412,3.83238 -2.500421,6.8332 -0.102363,0.79576 -0.336431,1.687 0.01776,2.40691 0.407095,0.82744 1.379748,1.22385 2.069621,1.83577 0.831467,0.17699 1.644366,0.52081 2.4944,0.53096 4.911097,0.0586 9.728726,-3.4979 13.884703,-5.741 0.107304,-0.0373 0.416465,-0.0488 0.321911,-0.11173 -0.777023,-0.51719 -0.945518,0.47058 -0.769115,1.04899 0.491588,1.61188 1.767059,2.61749 3.503406,2.76778 1.247788,0.10799 2.480974,-0.34544 3.72146,-0.51817 1.436005,-0.5611 2.933131,-0.98571 4.308017,-1.6833 4.404627,-2.23484 8.087889,-5.06538 12.010448,-8.0591 7.119803,-5.4339 13.983568,-11.21384 20.978326,-16.80662 1.973331,-1.56368 3.946662,-3.12737 5.919993,-4.69105 0,0 12.465133,-14.280173 12.465133,-14.280173 v 0 c -2.11204,1.7238 -4.224082,3.4476 -6.336123,5.1714 -7.505851,6.045917 -6.579928,5.325401 -14.10883,11.289353 -6.333849,5.0173 -12.580119,10.56903 -20.235052,13.47544 -0.832244,0.22657 -1.655302,0.49008 -2.496733,0.6797 -0.357674,0.0806 -0.751898,0.26528 -1.09233,0.12914 -0.626165,-0.25041 -0.180337,-1.8254 -0.445545,-2.59594 -0.882435,-2.56385 -0.922874,-2.09958 -2.961301,-2.20081 -3.87867,2.26679 -8.325128,5.70766 -12.761875,6.57426 -0.541481,0.10577 -1.10267,0.0409 -1.654003,0.0613 -0.279345,7e-5 -0.707181,0.24702 -0.838036,2.2e-4 -0.421823,-0.79558 0.259662,-3.67395 0.415909,-4.1484 1.405424,-4.26769 3.873823,-8.16581 5.943232,-12.11283 2.762568,-4.27174 3.234661,-5.248374 6.355524,-9.143614 1.860095,-2.321637 3.961387,-4.627333 6.097416,-6.708484 4.436009,-4.322043 21.378296,-17.937451 -12.872199,10.440172 0,0 15.295917,-17.107876 15.295917,-17.107876 z" />
  </g>
</svg>
